<svg aria-hidden="true" xmlns="http://www.w3.org/2000/svg" xmlns:xlink="http://www.w3.org/1999/xlink"><symbol id="telegram" viewBox="0 0 512 512" xml:space="preserve" xmlns="http://www.w3.org/2000/svg"><svg height="512" id="Layer_1" version="1.1" viewBox="0 0 512 512" width="512" xml:space="preserve" xmlns="http://www.w3.org/2000/svg" xmlns:cc="http://creativecommons.org/ns#" xmlns:dc="http://purl.org/dc/elements/1.1/" xmlns:inkscape="http://www.inkscape.org/namespaces/inkscape" xmlns:rdf="http://www.w3.org/1999/02/22-rdf-syntax-ns#" xmlns:sodipodi="http://sodipodi.sourceforge.net/DTD/sodipodi-0.dtd" xmlns:svg="http://www.w3.org/2000/svg"><defs id="defs12"/><g id="g3885" transform="translate(297.22034,0)"><rect height="512" id="rect2987" rx="64" ry="64" style="fill:#64a9dc;fill-opacity:1;fill-rule:nonzero;stroke:none" width="512" x="-297.22034" y="5.6843419e-014"/><path d="M 127.88103,94.198045 -218.4667,227.78507 c -23.63879,9.48433 -23.4986,22.66901 -4.30871,28.54816 l 86.38017,26.96101 33.05108,101.33207 c 4.018041,11.09077 2.03732,15.48953 13.683731,15.48953 8.98786,0 12.97504,-4.09778 17.98087,-8.98786 3.1833,-3.11513 22.08378,-21.49087 43.18752,-42.00936 l 89.85158,66.38643 c 16.5339,9.12161 28.47227,4.39617 32.58935,-15.35577 L 152.92948,122.20987 C 158.96812,98.000015 143.69981,87.018565 127.88103,94.198045 z M -122.83885,277.09998 71.862531,154.2616 c 9.71969,-5.89458 18.63166,-2.72542 11.31455,3.76981 l -166.71528,150.41932 -6.49136,69.23533 -32.809291,-100.58608 z" id="path9" style="fill:#ffffff"/></g></svg></symbol><symbol id="viber" viewBox="0 0 512 512" xml:space="preserve" xmlns="http://www.w3.org/2000/svg"><svg height="512" id="Layer_1" version="1.1" viewBox="0 0 512 512" width="512" xml:space="preserve" xmlns="http://www.w3.org/2000/svg" xmlns:cc="http://creativecommons.org/ns#" xmlns:dc="http://purl.org/dc/elements/1.1/" xmlns:inkscape="http://www.inkscape.org/namespaces/inkscape" xmlns:rdf="http://www.w3.org/1999/02/22-rdf-syntax-ns#" xmlns:sodipodi="http://sodipodi.sourceforge.net/DTD/sodipodi-0.dtd" xmlns:svg="http://www.w3.org/2000/svg"><defs id="defs12"/><g id="g4780"><rect height="512" id="rect2987" rx="64" ry="64" style="fill:#7b519d;fill-opacity:1;fill-rule:nonzero;stroke:none" width="512" x="0" y="0"/><g id="g15" transform="matrix(1.452588,0,0,1.452588,-115.17955,-97.147891)"><path d="m 369.75,304.701 c -8.397,-6.76 -17.371,-12.828 -26.204,-19.027 -17.617,-12.373 -33.73,-13.334 -46.876,6.572 -7.382,11.176 -17.716,11.665 -28.521,6.762 -29.789,-13.506 -52.791,-34.318 -66.265,-64.595 -5.96,-13.395 -5.882,-25.405 8.064,-34.879 7.383,-5.01 14.822,-10.939 14.227,-21.887 -0.777,-14.275 -35.437,-61.981 -49.124,-67.016 -5.664,-2.084 -11.304,-1.949 -17.066,-0.012 -32.095,10.793 -45.388,37.188 -32.657,68.441 37.98,93.242 104.82,158.154 196.828,197.773 5.245,2.256 11.073,3.158 14.024,3.967 20.947,0.211 45.486,-19.971 52.573,-40 6.823,-19.269 -7.597,-26.918 -19.003,-36.099 z" id="path17-6" style="fill:#ffffff;fill-rule:evenodd"/><path d="m 266.586,120.19 c 67.264,10.344 98.285,42.328 106.851,110.076 0.794,6.258 -1.537,15.674 7.391,15.848 9.331,0.178 7.083,-9.099 7.161,-15.363 0.789,-63.806 -54.846,-122.957 -119.458,-125.138 -4.875,0.701 -14.962,-3.362 -15.591,7.564 -0.419,7.367 8.073,6.156 13.646,7.013 z" id="path19-1" style="fill:#ffffff;fill-rule:evenodd"/><path d="m 279.743,138.766 c -6.47,-0.779 -15.011,-3.828 -16.523,5.15 -1.578,9.422 7.941,8.465 14.058,9.834 41.544,9.285 56.009,24.406 62.849,65.615 0.999,6.008 -0.986,15.359 9.224,13.809 7.567,-1.152 4.834,-9.168 5.467,-13.85 0.335,-39.563 -33.567,-75.574 -75.075,-80.558 z" id="path21-2" style="fill:#ffffff;fill-rule:evenodd"/><path d="m 283.558,171.118 c -4.319,0.107 -8.558,0.574 -10.145,5.189 -2.384,6.898 2.631,8.543 7.736,9.363 17.042,2.736 26.011,12.785 27.713,29.779 0.46,4.613 3.387,8.35 7.843,7.824 6.174,-0.736 6.732,-6.232 6.543,-11.451 0.305,-19.093 -21.275,-41.161 -39.69,-40.704 z" id="path23" style="fill:#ffffff;fill-rule:evenodd"/></g></g></svg></symbol><symbol id="whatsapp" viewBox="0 0 512 512" xml:space="preserve" xmlns="http://www.w3.org/2000/svg"><svg height="512" id="Layer_1" version="1.1" viewBox="0 0 512 512" width="512" xml:space="preserve" xmlns="http://www.w3.org/2000/svg" xmlns:cc="http://creativecommons.org/ns#" xmlns:dc="http://purl.org/dc/elements/1.1/" xmlns:inkscape="http://www.inkscape.org/namespaces/inkscape" xmlns:rdf="http://www.w3.org/1999/02/22-rdf-syntax-ns#" xmlns:sodipodi="http://sodipodi.sourceforge.net/DTD/sodipodi-0.dtd" xmlns:svg="http://www.w3.org/2000/svg"><defs id="defs12"/><g id="g5124"><rect height="512" id="rect2987" rx="64" ry="64" style="fill:#65bc54;fill-opacity:1;fill-rule:nonzero;stroke:none" width="512" x="0" y="0"/><path d="m 456,250.85266 c 0,107.60904 -87.9126,194.8442 -196.36397,194.8442 -34.43066,0 -66.77677,-8.80168 -94.9199,-24.24162 L 56.000005,456 91.437745,351.45584 C 73.559715,322.08872 63.265025,287.65523 63.265025,250.85124 63.265025,143.23516 151.18049,56 259.63463,56 368.0874,56.001 456,143.23657 456,250.85266 z M 259.63603,87.03196 c -91.04092,0 -165.093965,73.49248 -165.093965,163.8207 0,35.84056 11.683465,69.04162 31.446055,96.04529 l -20.62177,60.83151 63.44285,-20.16403 c 26.07126,17.11323 57.29196,27.09805 90.82543,27.09805 91.02965,0 165.09396,-73.48543 165.09396,-163.81224 0,-90.3268 -74.06292,-163.81928 -165.09256,-163.81928 z m 99.15526,208.68972 c -1.20989,-1.98879 -4.4185,-3.18602 -9.22424,-5.5706 -4.81705,-2.3874 -28.48964,-13.94551 -32.894,-15.53429 -4.41845,-1.59301 -7.63122,-2.39304 -10.83838,2.38458 -3.20432,4.79028 -12.42856,15.53429 -15.24273,18.72031 -2.80853,3.19166 -5.60863,3.59026 -10.42569,1.20003 -4.80578,-2.38739 -20.32177,-7.4284 -38.70826,-23.70215 -14.30749,-12.65815 -23.96978,-28.2854 -26.77831,-33.07147 -2.80854,-4.77903 -0.2972,-7.3622 2.10993,-9.73975 2.16626,-2.14796 4.81423,-5.58186 7.22416,-8.36364 2.40712,-2.79447 3.20715,-4.78184 4.80861,-7.96926 1.61272,-3.18884 0.80002,-5.97485 -0.3986,-8.3707 -1.20286,-2.38317 -10.83274,-25.88955 -14.84415,-35.449 -4.01138,-9.55947 -8.0115,-7.96646 -10.82568,-7.96646 -2.80996,0 -6.01569,-0.40002 -9.22987,-0.40002 -3.20997,0 -8.42703,1.19864 -12.83562,5.97344 -4.41001,4.78325 -16.84138,16.33291 -16.84138,39.83365 0,23.50497 17.24279,46.21133 19.65273,49.39594 2.40431,3.17756 33.28838,52.9721 82.21811,72.10228 48.94802,19.11328 48.94802,12.74407 57.77365,11.937 8.81437,-0.78735 28.46992,-11.54403 32.48832,-22.70072 4.0086,-11.14964 4.0086,-20.71896 2.8114,-22.70917 z" id="WhatsApp_2_" style="fill:#ffffff;fill-rule:evenodd"/></g></svg></symbol><symbol id="telegramWhite" viewBox="0 0 512 512" xml:space="preserve" xmlns="http://www.w3.org/2000/svg"><svg viewBox="0 0 448 512" xmlns="http://www.w3.org/2000/svg"><path d="m446.7 98.6-67.6 318.8c-5.1 22.5-18.4 28.1-37.3 17.5l-103-75.9-49.7 47.8c-5.5 5.5-10.1 10.1-20.7 10.1l7.4-104.9 190.9-172.5c8.3-7.4-1.8-11.5-12.9-4.1L117.8 284 16.2 252.2c-22.1-6.9-22.5-22.1 4.6-32.7L418.2 66.4c18.4-6.9 34.5 4.1 28.5 32.2z" fill="#ffffff" class="fill-000000"></path></svg></symbol><symbol viewBox="0 0 32 32" id="svg-github"><path d="M16 0.396c-8.839 0-16 7.167-16 16 0 7.073 4.584 13.068 10.937 15.183 0.803 0.151 1.093-0.344 1.093-0.772 0-0.38-0.009-1.385-0.015-2.719-4.453 0.964-5.391-2.151-5.391-2.151-0.729-1.844-1.781-2.339-1.781-2.339-1.448-0.989 0.115-0.968 0.115-0.968 1.604 0.109 2.448 1.645 2.448 1.645 1.427 2.448 3.744 1.74 4.661 1.328 0.14-1.031 0.557-1.74 1.011-2.135-3.552-0.401-7.287-1.776-7.287-7.907 0-1.751 0.62-3.177 1.645-4.297-0.177-0.401-0.719-2.031 0.141-4.235 0 0 1.339-0.427 4.4 1.641 1.281-0.355 2.641-0.532 4-0.541 1.36 0.009 2.719 0.187 4 0.541 3.043-2.068 4.381-1.641 4.381-1.641 0.859 2.204 0.317 3.833 0.161 4.235 1.015 1.12 1.635 2.547 1.635 4.297 0 6.145-3.74 7.5-7.296 7.891 0.556 0.479 1.077 1.464 1.077 2.959 0 2.14-0.020 3.864-0.020 4.385 0 0.416 0.28 0.916 1.104 0.755 6.4-2.093 10.979-8.093 10.979-15.156 0-8.833-7.161-16-16-16z"/></symbol><symbol viewBox="0 0 48 48" id="svg-linkedin"><path fill-rule="evenodd" clip-rule="evenodd" d="M0 24C0 10.7452 10.7452 0 24 0C37.2548 0 48 10.7452 48 24C48 37.2548 37.2548 48 24 48C10.7452 48 0 37.2548 0 24ZM16.9605 19.8778H11.5216V36.2196H16.9605V19.8778ZM17.3188 14.8227C17.2835 13.2204 16.1377 12 14.277 12C12.4164 12 11.2 13.2204 11.2 14.8227C11.2 16.3918 12.3805 17.6473 14.2064 17.6473H14.2412C16.1377 17.6473 17.3188 16.3918 17.3188 14.8227ZM36.5754 26.8497C36.5754 21.8303 33.8922 19.4941 30.3131 19.4941C27.4254 19.4941 26.1326 21.0802 25.4107 22.1929V19.8783H19.9711C20.0428 21.4117 19.9711 36.22 19.9711 36.22H25.4107V27.0934C25.4107 26.605 25.446 26.1178 25.5898 25.7681C25.9829 24.7924 26.8779 23.7822 28.3805 23.7822C30.3494 23.7822 31.1365 25.2807 31.1365 27.4767V36.2196H36.5752L36.5754 26.8497Z"/></symbol><symbol viewBox="0 0 512 512" id="svg-instagram"><path d="m305 256c0 27.0625-21.9375 49-49 49s-49-21.9375-49-49 21.9375-49 49-49 49 21.9375 49 49zm0 0"/><path d="m370.59375 169.304688c-2.355469-6.382813-6.113281-12.160157-10.996094-16.902344-4.742187-4.882813-10.515625-8.640625-16.902344-10.996094-5.179687-2.011719-12.960937-4.40625-27.292968-5.058594-15.503906-.707031-20.152344-.859375-59.402344-.859375-39.253906 0-43.902344.148438-59.402344.855469-14.332031.65625-22.117187 3.050781-27.292968 5.0625-6.386719 2.355469-12.164063 6.113281-16.902344 10.996094-4.882813 4.742187-8.640625 10.515625-11 16.902344-2.011719 5.179687-4.40625 12.964843-5.058594 27.296874-.707031 15.5-.859375 20.148438-.859375 59.402344 0 39.25.152344 43.898438.859375 59.402344.652344 14.332031 3.046875 22.113281 5.058594 27.292969 2.359375 6.386719 6.113281 12.160156 10.996094 16.902343 4.742187 4.882813 10.515624 8.640626 16.902343 10.996094 5.179688 2.015625 12.964844 4.410156 27.296875 5.0625 15.5.707032 20.144532.855469 59.398438.855469 39.257812 0 43.90625-.148437 59.402344-.855469 14.332031-.652344 22.117187-3.046875 27.296874-5.0625 12.820313-4.945312 22.953126-15.078125 27.898438-27.898437 2.011719-5.179688 4.40625-12.960938 5.0625-27.292969.707031-15.503906.855469-20.152344.855469-59.402344 0-39.253906-.148438-43.902344-.855469-59.402344-.652344-14.332031-3.046875-22.117187-5.0625-27.296874zm-114.59375 162.179687c-41.691406 0-75.488281-33.792969-75.488281-75.484375s33.796875-75.484375 75.488281-75.484375c41.6875 0 75.484375 33.792969 75.484375 75.484375s-33.796875 75.484375-75.484375 75.484375zm78.46875-136.3125c-9.742188 0-17.640625-7.898437-17.640625-17.640625s7.898437-17.640625 17.640625-17.640625 17.640625 7.898437 17.640625 17.640625c-.003906 9.742188-7.898437 17.640625-17.640625 17.640625zm0 0"/><path d="m256 0c-141.363281 0-256 114.636719-256 256s114.636719 256 256 256 256-114.636719 256-256-114.636719-256-256-256zm146.113281 316.605469c-.710937 15.648437-3.199219 26.332031-6.832031 35.683593-7.636719 19.746094-23.246094 35.355469-42.992188 42.992188-9.347656 3.632812-20.035156 6.117188-35.679687 6.832031-15.675781.714844-20.683594.886719-60.605469.886719-39.925781 0-44.929687-.171875-60.609375-.886719-15.644531-.714843-26.332031-3.199219-35.679687-6.832031-9.8125-3.691406-18.695313-9.476562-26.039063-16.957031-7.476562-7.339844-13.261719-16.226563-16.953125-26.035157-3.632812-9.347656-6.121094-20.035156-6.832031-35.679687-.722656-15.679687-.890625-20.6875-.890625-60.609375s.167969-44.929688.886719-60.605469c.710937-15.648437 3.195312-26.332031 6.828125-35.683593 3.691406-9.808594 9.480468-18.695313 16.960937-26.035157 7.339844-7.480469 16.226563-13.265625 26.035157-16.957031 9.351562-3.632812 20.035156-6.117188 35.683593-6.832031 15.675781-.714844 20.683594-.886719 60.605469-.886719s44.929688.171875 60.605469.890625c15.648437.710937 26.332031 3.195313 35.683593 6.824219 9.808594 3.691406 18.695313 9.480468 26.039063 16.960937 7.476563 7.34375 13.265625 16.226563 16.953125 26.035157 3.636719 9.351562 6.121094 20.035156 6.835938 35.683593.714843 15.675781.882812 20.683594.882812 60.605469s-.167969 44.929688-.886719 60.605469zm0 0"/></symbol></svg>

