<svg width="226" height="79" viewBox="0 0 226 79" fill="none" xmlns="http://www.w3.org/2000/svg">
<rect x="10" y="14" width="205" height="2" fill="#FCBE59"/>
<rect x="10" y="66" width="205" height="2" fill="#FCBE59"/>
<path d="M10.2686 28.498C10.2327 28.4121 10.2148 28.3154 10.2148 28.208C10.2148 28.0934 10.2757 27.9645 10.3975 27.8213C10.5264 27.6709 10.7161 27.5957 10.9668 27.5957H13.3193C13.5986 27.5957 13.8564 27.6924 14.0928 27.8857C14.3291 28.0791 14.4974 28.3226 14.5977 28.6162L17.4336 37.124L20.0547 28.6162C20.2624 27.9359 20.6885 27.5957 21.333 27.5957H23.3096C23.9541 27.5957 24.3802 27.9359 24.5879 28.6162L27.209 37.124L30.0449 28.6162C30.1452 28.3226 30.3135 28.0791 30.5498 27.8857C30.7861 27.6924 31.0439 27.5957 31.3232 27.5957H33.6758C33.9193 27.5957 34.1019 27.6709 34.2236 27.8213C34.3525 27.9645 34.417 28.0934 34.417 28.208C34.417 28.3154 34.4027 28.4121 34.374 28.498L29.583 41.9043C29.318 42.6348 28.8024 43 28.0361 43H26.4785C25.6836 43 25.1715 42.6348 24.9424 41.9043L22.3213 33.6328L19.7002 41.9043C19.4639 42.6348 18.9518 43 18.1641 43H16.5957C15.8366 43 15.3245 42.6348 15.0596 41.9043L10.2686 28.498ZM36.1787 41.9688V28.5947C36.1787 28.3154 36.279 28.0791 36.4795 27.8857C36.68 27.6924 36.9199 27.5957 37.1992 27.5957H49.585C49.8643 27.5957 50.1006 27.696 50.2939 27.8965C50.4945 28.097 50.5947 28.3369 50.5947 28.6162V29.626C50.5947 29.9053 50.4945 30.1452 50.2939 30.3457C50.1006 30.5391 49.8643 30.6357 49.585 30.6357H40.2285V33.7617H48.2852C48.5645 33.7617 48.8008 33.862 48.9941 34.0625C49.1947 34.2559 49.2949 34.4922 49.2949 34.7715V35.7812C49.2949 36.0605 49.1947 36.3005 48.9941 36.501C48.8008 36.6943 48.5645 36.791 48.2852 36.791H40.2285V39.96H49.5635C49.8356 39.96 50.0684 40.0566 50.2617 40.25C50.4551 40.4434 50.5518 40.6797 50.5518 40.959V41.9902C50.5518 42.2695 50.4515 42.5094 50.251 42.71C50.0505 42.9033 49.8105 43 49.5312 43H37.1992C36.9199 43 36.68 42.9033 36.4795 42.71C36.279 42.5094 36.1787 42.2624 36.1787 41.9688ZM52.5713 28.6162C52.5713 28.3369 52.6715 28.097 52.8721 27.8965C53.0726 27.696 53.3125 27.5957 53.5918 27.5957H62.3252C64.4665 27.5957 66.0456 28.2116 67.0625 29.4434C67.6283 30.1237 67.9111 30.9938 67.9111 32.0537C67.9111 33.1064 67.4277 34.0267 66.4609 34.8145C67.8359 35.5521 68.5234 36.6979 68.5234 38.252C68.5234 39.806 67.972 40.9876 66.8691 41.7969C65.7734 42.599 64.4271 43 62.8301 43H53.5918C53.3125 43 53.0726 42.9033 52.8721 42.71C52.6715 42.5094 52.5713 42.2695 52.5713 41.9902V28.6162ZM56.6211 40.0996H62.7656C63.3171 40.0996 63.7396 39.9349 64.0332 39.6055C64.3268 39.276 64.4736 38.8249 64.4736 38.252C64.4736 37.679 64.3268 37.2279 64.0332 36.8984C63.7396 36.569 63.3171 36.4043 62.7656 36.4043H56.6211V40.0996ZM56.6211 33.5791H62.3682C62.8193 33.5791 63.181 33.4466 63.4531 33.1816C63.7253 32.9095 63.8613 32.5335 63.8613 32.0537C63.8613 31.5667 63.7253 31.1872 63.4531 30.915C63.181 30.6429 62.8193 30.5068 62.3682 30.5068H56.6211V33.5791ZM86.667 42.5273C86.667 42.8424 86.4808 43 86.1084 43H83.6484C83.3691 43 83.0684 42.9033 82.7461 42.71C82.4238 42.5094 82.1732 42.2695 81.9941 41.9902L80.1035 38.9932C79.6523 38.2627 79.1976 37.7148 78.7393 37.3496C78.2809 36.9772 77.7295 36.791 77.085 36.791H74.7754V42.0117C74.7754 42.291 74.6751 42.5273 74.4746 42.7207C74.2812 42.9069 74.0449 43 73.7656 43H71.7461C71.4668 43 71.2269 42.8997 71.0264 42.6992C70.8258 42.4915 70.7256 42.248 70.7256 41.9688V28.6162C70.7256 28.3369 70.8258 28.0934 71.0264 27.8857C71.2269 27.6781 71.4668 27.5742 71.7461 27.5742H73.7656C74.0449 27.5742 74.2812 27.6781 74.4746 27.8857C74.6751 28.0934 74.7754 28.3369 74.7754 28.6162V33.7617H77.085C77.7152 33.7617 78.2666 33.5898 78.7393 33.2461C79.2191 32.9023 79.6738 32.3473 80.1035 31.5811L81.7686 28.6162C82.1481 27.9287 82.6637 27.5814 83.3154 27.5742H85.7969C86.1406 27.5742 86.3125 27.7246 86.3125 28.0254C86.3125 28.1901 86.2516 28.387 86.1299 28.6162L83.7988 32.8379C83.4622 33.4538 83.0827 33.9622 82.6602 34.3633C82.2448 34.7643 81.7005 35.0472 81.0273 35.2119C81.5 35.3122 81.9834 35.6094 82.4775 36.1035C82.9788 36.5977 83.4193 37.1348 83.7988 37.7148L86.4844 41.9902C86.6061 42.1979 86.667 42.377 86.667 42.5273ZM104.209 42.5381C104.209 42.846 104.026 43 103.661 43H101.083C100.811 43 100.51 42.9033 100.181 42.71C99.8584 42.5094 99.6113 42.2695 99.4395 41.9902L97.6133 39.1328C96.8613 37.9583 95.9518 37.3711 94.8848 37.3711H92.2637V41.9902C92.2637 42.2695 92.1634 42.5094 91.9629 42.71C91.7695 42.9033 91.5332 43 91.2539 43H89.2344C88.9551 43 88.7152 42.9033 88.5146 42.71C88.3141 42.5094 88.2139 42.2695 88.2139 41.9902V28.6162C88.2139 28.3369 88.3105 28.097 88.5039 27.8965C88.6973 27.696 88.9336 27.5957 89.2129 27.5957H98.0752C99.7152 27.5957 101.058 28.0361 102.104 28.917C103.156 29.7979 103.683 30.9867 103.683 32.4834C103.683 34.5674 102.333 35.8743 99.6328 36.4043C100.062 36.5618 100.46 36.834 100.825 37.2207C101.19 37.6003 101.609 38.1553 102.082 38.8857L104.037 41.9902C104.152 42.1908 104.209 42.3734 104.209 42.5381ZM92.2637 34.3311H96.8398C97.5775 34.3311 98.2256 34.1842 98.7842 33.8906C99.3499 33.597 99.6328 33.1279 99.6328 32.4834C99.6328 31.8389 99.3499 31.3698 98.7842 31.0762C98.2256 30.7826 97.5775 30.6357 96.8398 30.6357H92.2637V34.3311ZM105.788 36.9092V28.6162C105.788 28.3369 105.885 28.097 106.078 27.8965C106.279 27.696 106.526 27.5957 106.819 27.5957H108.828C109.1 27.5957 109.337 27.696 109.537 27.8965C109.738 28.097 109.838 28.3369 109.838 28.6162V36.9307C109.838 37.9834 110.067 38.7676 110.525 39.2832C110.991 39.7988 111.707 40.0566 112.674 40.0566H114.393C115.359 40.0566 116.072 39.7988 116.53 39.2832C116.996 38.7676 117.229 37.9834 117.229 36.9307V28.6162C117.229 28.3369 117.325 28.097 117.519 27.8965C117.719 27.696 117.959 27.5957 118.238 27.5957H120.236C120.53 27.5957 120.777 27.696 120.978 27.8965C121.178 28.097 121.278 28.3369 121.278 28.6162V36.9092C121.278 38.8714 120.702 40.3932 119.549 41.4746C118.396 42.5488 116.713 43.0859 114.5 43.0859H112.566C110.346 43.0859 108.66 42.5488 107.507 41.4746C106.361 40.3932 105.788 38.8714 105.788 36.9092ZM122.814 29.626V28.6162C122.814 28.3226 122.911 28.0791 123.104 27.8857C123.298 27.6924 123.541 27.5957 123.835 27.5957H137.467C137.76 27.5957 138.004 27.6924 138.197 27.8857C138.391 28.0791 138.487 28.3226 138.487 28.6162V29.626C138.487 29.9196 138.391 30.1631 138.197 30.3564C138.004 30.5426 137.76 30.6357 137.467 30.6357H132.676V42.0117C132.676 42.291 132.576 42.5273 132.375 42.7207C132.182 42.9069 131.945 43 131.666 43H129.636C129.356 43 129.117 42.9069 128.916 42.7207C128.723 42.5273 128.626 42.291 128.626 42.0117V30.6357H123.835C123.541 30.6357 123.298 30.5426 123.104 30.3564C122.911 30.1631 122.814 29.9196 122.814 29.626ZM156.19 42.5273C156.19 42.8424 156.004 43 155.632 43H153.172C152.893 43 152.592 42.9033 152.27 42.71C151.947 42.5094 151.697 42.2695 151.518 41.9902L149.627 38.9932C149.176 38.2627 148.721 37.7148 148.263 37.3496C147.804 36.9772 147.253 36.791 146.608 36.791H144.299V42.0117C144.299 42.291 144.199 42.5273 143.998 42.7207C143.805 42.9069 143.568 43 143.289 43H141.27C140.99 43 140.75 42.8997 140.55 42.6992C140.349 42.4915 140.249 42.248 140.249 41.9688V28.6162C140.249 28.3369 140.349 28.0934 140.55 27.8857C140.75 27.6781 140.99 27.5742 141.27 27.5742H143.289C143.568 27.5742 143.805 27.6781 143.998 27.8857C144.199 28.0934 144.299 28.3369 144.299 28.6162V33.7617H146.608C147.239 33.7617 147.79 33.5898 148.263 33.2461C148.743 32.9023 149.197 32.3473 149.627 31.5811L151.292 28.6162C151.672 27.9287 152.187 27.5814 152.839 27.5742H155.32C155.664 27.5742 155.836 27.7246 155.836 28.0254C155.836 28.1901 155.775 28.387 155.653 28.6162L153.322 32.8379C152.986 33.4538 152.606 33.9622 152.184 34.3633C151.768 34.7643 151.224 35.0472 150.551 35.2119C151.023 35.3122 151.507 35.6094 152.001 36.1035C152.502 36.5977 152.943 37.1348 153.322 37.7148L156.008 41.9902C156.13 42.1979 156.19 42.377 156.19 42.5273ZM171.627 41.4102C170.166 42.6921 168.018 43.333 165.182 43.333C162.353 43.333 160.204 42.6921 158.736 41.4102C157.268 40.1211 156.534 38.0837 156.534 35.2979C156.534 32.512 157.268 30.4782 158.736 29.1963C160.204 27.9144 162.353 27.2734 165.182 27.2734C168.018 27.2734 170.166 27.9144 171.627 29.1963C173.095 30.4782 173.829 32.512 173.829 35.2979C173.829 38.0837 173.095 40.1211 171.627 41.4102ZM168.694 31.4629C167.971 30.6035 166.8 30.1738 165.182 30.1738C163.57 30.1738 162.399 30.6035 161.669 31.4629C160.946 32.3223 160.584 33.6042 160.584 35.3086C160.584 37.0059 160.946 38.2842 161.669 39.1436C162.399 39.9958 163.57 40.4219 165.182 40.4219C166.8 40.4219 167.971 39.9958 168.694 39.1436C169.418 38.2842 169.779 37.0059 169.779 35.3086C169.779 33.6042 169.418 32.3223 168.694 31.4629ZM178.158 39.5195C179.125 39.5195 179.608 40.0065 179.608 40.9805V41.6572C179.608 42.1084 179.483 42.4629 179.232 42.7207C178.989 42.9785 178.631 43.1074 178.158 43.1074H176.837C176.364 43.1074 176.003 42.9785 175.752 42.7207C175.508 42.4629 175.387 42.1084 175.387 41.6572V40.9805C175.387 40.5078 175.512 40.1462 175.763 39.8955C176.013 39.6449 176.371 39.5195 176.837 39.5195H178.158ZM182.036 28.6162C182.036 28.3369 182.136 28.097 182.337 27.8965C182.537 27.696 182.777 27.5957 183.057 27.5957H191.79C193.931 27.5957 195.51 28.2116 196.527 29.4434C197.093 30.1237 197.376 30.9938 197.376 32.0537C197.376 33.1064 196.893 34.0267 195.926 34.8145C197.301 35.5521 197.988 36.6979 197.988 38.252C197.988 39.806 197.437 40.9876 196.334 41.7969C195.238 42.599 193.892 43 192.295 43H183.057C182.777 43 182.537 42.9033 182.337 42.71C182.136 42.5094 182.036 42.2695 182.036 41.9902V28.6162ZM186.086 40.0996H192.23C192.782 40.0996 193.204 39.9349 193.498 39.6055C193.792 39.276 193.938 38.8249 193.938 38.252C193.938 37.679 193.792 37.2279 193.498 36.8984C193.204 36.569 192.782 36.4043 192.23 36.4043H186.086V40.0996ZM186.086 33.5791H191.833C192.284 33.5791 192.646 33.4466 192.918 33.1816C193.19 32.9095 193.326 32.5335 193.326 32.0537C193.326 31.5667 193.19 31.1872 192.918 30.915C192.646 30.6429 192.284 30.5068 191.833 30.5068H186.086V33.5791ZM198.439 28.1113C198.439 27.7676 198.626 27.5957 198.998 27.5957H201.039C201.848 27.5957 202.471 27.9359 202.908 28.6162L206.389 33.9766L209.858 28.6162C210.302 27.9359 210.925 27.5957 211.728 27.5957H213.779C214.145 27.5957 214.327 27.7676 214.327 28.1113C214.327 28.2689 214.27 28.4372 214.155 28.6162L208.408 37.5V42.0117C208.408 42.291 208.308 42.5273 208.107 42.7207C207.914 42.9069 207.678 43 207.398 43H205.379C205.1 43 204.86 42.9069 204.659 42.7207C204.459 42.5273 204.358 42.291 204.358 42.0117V37.5L198.622 28.6162C198.5 28.4372 198.439 28.2689 198.439 28.1113Z" fill="black"/>
<path d="M36.1367 54.6543H33.8574V53.7344H36.1367C36.5781 53.7344 36.9355 53.6641 37.209 53.5234C37.4824 53.3828 37.6816 53.1875 37.8066 52.9375C37.9355 52.6875 38 52.4023 38 52.082C38 51.7891 37.9355 51.5137 37.8066 51.2559C37.6816 50.998 37.4824 50.791 37.209 50.6348C36.9355 50.4746 36.5781 50.3945 36.1367 50.3945H34.1211V58H32.9902V49.4688H36.1367C36.7812 49.4688 37.3262 49.5801 37.7715 49.8027C38.2168 50.0254 38.5547 50.334 38.7852 50.7285C39.0156 51.1191 39.1309 51.5664 39.1309 52.0703C39.1309 52.6172 39.0156 53.084 38.7852 53.4707C38.5547 53.8574 38.2168 54.1523 37.7715 54.3555C37.3262 54.5547 36.7812 54.6543 36.1367 54.6543ZM47.3645 56.916V53.6523C47.3645 53.4023 47.3137 53.1855 47.2121 53.002C47.1145 52.8145 46.966 52.6699 46.7668 52.5684C46.5676 52.4668 46.3215 52.416 46.0285 52.416C45.7551 52.416 45.5148 52.4629 45.3078 52.5566C45.1047 52.6504 44.9445 52.7734 44.8273 52.9258C44.7141 53.0781 44.6574 53.2422 44.6574 53.418H43.5734C43.5734 53.1914 43.632 52.9668 43.7492 52.7441C43.8664 52.5215 44.0344 52.3203 44.2531 52.1406C44.4758 51.957 44.7414 51.8125 45.05 51.707C45.3625 51.5977 45.7102 51.543 46.093 51.543C46.5539 51.543 46.9602 51.6211 47.3117 51.7773C47.6672 51.9336 47.9445 52.1699 48.1438 52.4863C48.3469 52.7988 48.4484 53.1914 48.4484 53.6641V56.6172C48.4484 56.8281 48.466 57.0527 48.5012 57.291C48.5402 57.5293 48.5969 57.7344 48.6711 57.9062V58H47.5402C47.4855 57.875 47.4426 57.709 47.4113 57.502C47.3801 57.291 47.3645 57.0957 47.3645 56.916ZM47.552 54.1562L47.5637 54.918H46.468C46.1594 54.918 45.884 54.9434 45.6418 54.9941C45.3996 55.041 45.1965 55.1133 45.0324 55.2109C44.8684 55.3086 44.7434 55.4316 44.6574 55.5801C44.5715 55.7246 44.5285 55.8945 44.5285 56.0898C44.5285 56.2891 44.5734 56.4707 44.6633 56.6348C44.7531 56.7988 44.8879 56.9297 45.0676 57.0273C45.2512 57.1211 45.4758 57.168 45.7414 57.168C46.0734 57.168 46.3664 57.0977 46.6203 56.957C46.8742 56.8164 47.0754 56.6445 47.2238 56.4414C47.3762 56.2383 47.4582 56.041 47.4699 55.8496L47.9328 56.3711C47.9055 56.5352 47.8313 56.7168 47.7102 56.916C47.5891 57.1152 47.427 57.3066 47.2238 57.4902C47.0246 57.6699 46.7863 57.8203 46.509 57.9414C46.2355 58.0586 45.927 58.1172 45.5832 58.1172C45.1535 58.1172 44.7766 58.0332 44.4523 57.8652C44.132 57.6973 43.882 57.4727 43.7023 57.1914C43.5266 56.9062 43.4387 56.5879 43.4387 56.2363C43.4387 55.8965 43.5051 55.5977 43.6379 55.3398C43.7707 55.0781 43.9621 54.8613 44.2121 54.6895C44.4621 54.5137 44.7629 54.3809 45.1145 54.291C45.466 54.2012 45.8586 54.1562 46.2922 54.1562H47.552ZM55.8207 54.9707H54.6547V54.3027H55.7328C56.0336 54.3027 56.2719 54.2656 56.4477 54.1914C56.6234 54.1133 56.7484 54.0059 56.8227 53.8691C56.8969 53.7324 56.934 53.5723 56.934 53.3887C56.934 53.2246 56.891 53.0703 56.8051 52.9258C56.723 52.7773 56.5902 52.6582 56.4066 52.5684C56.223 52.4746 55.977 52.4277 55.6684 52.4277C55.4184 52.4277 55.1918 52.4727 54.9887 52.5625C54.7855 52.6484 54.6234 52.7676 54.5023 52.9199C54.3852 53.0684 54.3266 53.2363 54.3266 53.4238H53.2426C53.2426 53.0371 53.352 52.7051 53.5707 52.4277C53.7934 52.1465 54.0883 51.9297 54.4555 51.7773C54.8266 51.625 55.2309 51.5488 55.6684 51.5488C56.0355 51.5488 56.3637 51.5898 56.6527 51.6719C56.9457 51.75 57.1938 51.8672 57.3969 52.0234C57.6 52.1758 57.7543 52.3672 57.8598 52.5977C57.9691 52.8242 58.0238 53.0879 58.0238 53.3887C58.0238 53.6035 57.973 53.8066 57.8715 53.998C57.7699 54.1895 57.6234 54.3594 57.432 54.5078C57.2406 54.6523 57.0082 54.7656 56.7348 54.8477C56.4652 54.9297 56.1605 54.9707 55.8207 54.9707ZM54.6547 54.5605H55.8207C56.1996 54.5605 56.5336 54.5977 56.8227 54.6719C57.1117 54.7422 57.3539 54.8477 57.5492 54.9883C57.7445 55.1289 57.891 55.3027 57.9887 55.5098C58.0902 55.7129 58.141 55.9473 58.141 56.2129C58.141 56.5098 58.0805 56.7773 57.9594 57.0156C57.8422 57.25 57.6742 57.4492 57.4555 57.6133C57.2367 57.7773 56.975 57.9023 56.6703 57.9883C56.3695 58.0742 56.0355 58.1172 55.6684 58.1172C55.2582 58.1172 54.8598 58.0469 54.473 57.9062C54.0863 57.7656 53.768 57.5488 53.518 57.2559C53.268 56.959 53.143 56.582 53.143 56.125H54.227C54.227 56.3164 54.2875 56.498 54.4086 56.6699C54.5297 56.8418 54.6977 56.9805 54.9125 57.0859C55.1313 57.1914 55.3832 57.2441 55.6684 57.2441C55.973 57.2441 56.227 57.1973 56.4301 57.1035C56.6332 57.0098 56.7855 56.8848 56.8871 56.7285C56.9926 56.5723 57.0453 56.4023 57.0453 56.2188C57.0453 55.9805 56.9984 55.7891 56.9047 55.6445C56.8109 55.5 56.6664 55.3945 56.4711 55.3281C56.2797 55.2578 56.0336 55.2227 55.7328 55.2227H54.6547V54.5605ZM63.9312 52.8789V60.4375H62.8414V51.6602H63.8375L63.9312 52.8789ZM68.2027 54.7773V54.9004C68.2027 55.3613 68.148 55.7891 68.0387 56.1836C67.9293 56.5742 67.7691 56.9141 67.5582 57.2031C67.3512 57.4922 67.0953 57.7168 66.7906 57.877C66.4859 58.0371 66.1363 58.1172 65.7418 58.1172C65.3395 58.1172 64.984 58.0508 64.6754 57.918C64.3668 57.7852 64.1051 57.5918 63.8902 57.3379C63.6754 57.084 63.5035 56.7793 63.3746 56.4238C63.2496 56.0684 63.1637 55.668 63.1168 55.2227V54.5664C63.1637 54.0977 63.2516 53.6777 63.3805 53.3066C63.5094 52.9355 63.6793 52.6191 63.8902 52.3574C64.1051 52.0918 64.3648 51.8906 64.6695 51.7539C64.9742 51.6133 65.3258 51.543 65.7242 51.543C66.1227 51.543 66.4762 51.6211 66.7848 51.7773C67.0934 51.9297 67.3531 52.1484 67.5641 52.4336C67.775 52.7188 67.9332 53.0605 68.0387 53.459C68.148 53.8535 68.2027 54.293 68.2027 54.7773ZM67.1129 54.9004V54.7773C67.1129 54.4609 67.0797 54.1641 67.0133 53.8867C66.9469 53.6055 66.8434 53.3594 66.7027 53.1484C66.566 52.9336 66.3902 52.7656 66.1754 52.6445C65.9605 52.5195 65.7047 52.457 65.4078 52.457C65.1344 52.457 64.8961 52.5039 64.693 52.5977C64.4937 52.6914 64.3238 52.8184 64.1832 52.9785C64.0426 53.1348 63.9273 53.3145 63.8375 53.5176C63.7516 53.7168 63.6871 53.9238 63.6441 54.1387V55.6562C63.7223 55.9297 63.8316 56.1875 63.9723 56.4297C64.1129 56.668 64.3004 56.8613 64.5348 57.0098C64.7691 57.1543 65.0641 57.2266 65.4195 57.2266C65.7125 57.2266 65.9645 57.166 66.1754 57.0449C66.3902 56.9199 66.566 56.75 66.7027 56.5352C66.8434 56.3203 66.9469 56.0742 67.0133 55.7969C67.0797 55.5156 67.1129 55.2168 67.1129 54.9004ZM76.6238 56.916V53.6523C76.6238 53.4023 76.573 53.1855 76.4715 53.002C76.3738 52.8145 76.2254 52.6699 76.0262 52.5684C75.827 52.4668 75.5809 52.416 75.2879 52.416C75.0145 52.416 74.7742 52.4629 74.5672 52.5566C74.3641 52.6504 74.2039 52.7734 74.0867 52.9258C73.9734 53.0781 73.9168 53.2422 73.9168 53.418H72.8328C72.8328 53.1914 72.8914 52.9668 73.0086 52.7441C73.1258 52.5215 73.2938 52.3203 73.5125 52.1406C73.7352 51.957 74.0008 51.8125 74.3094 51.707C74.6219 51.5977 74.9695 51.543 75.3523 51.543C75.8133 51.543 76.2195 51.6211 76.5711 51.7773C76.9266 51.9336 77.2039 52.1699 77.4031 52.4863C77.6063 52.7988 77.7078 53.1914 77.7078 53.6641V56.6172C77.7078 56.8281 77.7254 57.0527 77.7605 57.291C77.7996 57.5293 77.8563 57.7344 77.9305 57.9062V58H76.7996C76.7449 57.875 76.702 57.709 76.6707 57.502C76.6395 57.291 76.6238 57.0957 76.6238 56.916ZM76.8113 54.1562L76.823 54.918H75.7273C75.4188 54.918 75.1434 54.9434 74.9012 54.9941C74.659 55.041 74.4559 55.1133 74.2918 55.2109C74.1277 55.3086 74.0027 55.4316 73.9168 55.5801C73.8309 55.7246 73.7879 55.8945 73.7879 56.0898C73.7879 56.2891 73.8328 56.4707 73.9227 56.6348C74.0125 56.7988 74.1473 56.9297 74.327 57.0273C74.5105 57.1211 74.7352 57.168 75.0008 57.168C75.3328 57.168 75.6258 57.0977 75.8797 56.957C76.1336 56.8164 76.3348 56.6445 76.4832 56.4414C76.6355 56.2383 76.7176 56.041 76.7293 55.8496L77.1922 56.3711C77.1648 56.5352 77.0906 56.7168 76.9695 56.916C76.8484 57.1152 76.6863 57.3066 76.4832 57.4902C76.284 57.6699 76.0457 57.8203 75.7684 57.9414C75.4949 58.0586 75.1863 58.1172 74.8426 58.1172C74.4129 58.1172 74.0359 58.0332 73.7117 57.8652C73.3914 57.6973 73.1414 57.4727 72.9617 57.1914C72.7859 56.9062 72.698 56.5879 72.698 56.2363C72.698 55.8965 72.7645 55.5977 72.8973 55.3398C73.0301 55.0781 73.2215 54.8613 73.4715 54.6895C73.7215 54.5137 74.0223 54.3809 74.3738 54.291C74.7254 54.2012 75.118 54.1562 75.5516 54.1562H76.8113ZM86.7793 48.9004H87.6699C87.6699 49.2832 87.6113 49.5879 87.4941 49.8145C87.377 50.0371 87.2168 50.209 87.0137 50.3301C86.8145 50.4512 86.5879 50.543 86.334 50.6055C86.084 50.668 85.8242 50.7285 85.5547 50.7871C85.2188 50.8574 84.9062 50.9688 84.6172 51.1211C84.332 51.2695 84.0859 51.4805 83.8789 51.7539C83.6758 52.0273 83.5254 52.3828 83.4277 52.8203C83.334 53.2578 83.3086 53.7988 83.3516 54.4434V54.9824H82.4609V54.4434C82.4609 53.7207 82.5293 53.0898 82.666 52.5508C82.8066 52.0117 83.0039 51.5566 83.2578 51.1855C83.5117 50.8145 83.8125 50.5195 84.1602 50.3008C84.5117 50.082 84.8984 49.9316 85.3203 49.8496C85.625 49.791 85.8867 49.7285 86.1055 49.6621C86.3242 49.5918 86.4902 49.498 86.6035 49.3809C86.7207 49.2637 86.7793 49.1035 86.7793 48.9004ZM85.4961 52.0234C85.9102 52.0234 86.2793 52.0957 86.6035 52.2402C86.9277 52.3848 87.2031 52.5859 87.4297 52.8438C87.6562 53.1016 87.8281 53.4062 87.9453 53.7578C88.0664 54.1055 88.127 54.4844 88.127 54.8945V55.0234C88.127 55.4648 88.0625 55.875 87.9336 56.2539C87.8086 56.6289 87.623 56.957 87.377 57.2383C87.1348 57.5156 86.8379 57.7324 86.4863 57.8887C86.1387 58.0449 85.7422 58.123 85.2969 58.123C84.8516 58.123 84.4531 58.0449 84.1016 57.8887C83.7539 57.7324 83.457 57.5156 83.2109 57.2383C82.9648 56.957 82.7773 56.6289 82.6484 56.2539C82.5234 55.875 82.4609 55.4648 82.4609 55.0234V54.8945C82.4609 54.7969 82.4785 54.7012 82.5137 54.6074C82.5488 54.5137 82.5918 54.418 82.6426 54.3203C82.6973 54.2227 82.7461 54.1191 82.7891 54.0098C82.9336 53.6582 83.1309 53.332 83.3809 53.0312C83.6348 52.7305 83.9375 52.4883 84.2891 52.3047C84.6445 52.1172 85.0469 52.0234 85.4961 52.0234ZM85.2852 52.9082C84.8867 52.9082 84.5586 53 84.3008 53.1836C84.0469 53.3672 83.8574 53.6113 83.7324 53.916C83.6074 54.2168 83.5449 54.543 83.5449 54.8945V55.0234C83.5449 55.3203 83.5801 55.6016 83.6504 55.8672C83.7207 56.1328 83.8262 56.3691 83.9668 56.5762C84.1113 56.7793 84.293 56.9395 84.5117 57.0566C84.7344 57.1738 84.9961 57.2324 85.2969 57.2324C85.5977 57.2324 85.8574 57.1738 86.0762 57.0566C86.2949 56.9395 86.4746 56.7793 86.6152 56.5762C86.7559 56.3691 86.8613 56.1328 86.9316 55.8672C87.002 55.6016 87.0371 55.3203 87.0371 55.0234V54.8945C87.0371 54.6289 87.002 54.377 86.9316 54.1387C86.8613 53.9004 86.7539 53.6895 86.6094 53.5059C86.4688 53.3223 86.2871 53.1777 86.0645 53.0723C85.8457 52.9629 85.5859 52.9082 85.2852 52.9082ZM92.3703 54.9004V54.7656C92.3703 54.3086 92.4367 53.8848 92.5695 53.4941C92.7023 53.0996 92.8937 52.7578 93.1437 52.4688C93.3937 52.1758 93.6965 51.9492 94.052 51.7891C94.4074 51.625 94.8059 51.543 95.2473 51.543C95.6926 51.543 96.093 51.625 96.4484 51.7891C96.8078 51.9492 97.1125 52.1758 97.3625 52.4688C97.6164 52.7578 97.8098 53.0996 97.9426 53.4941C98.0754 53.8848 98.1418 54.3086 98.1418 54.7656V54.9004C98.1418 55.3574 98.0754 55.7812 97.9426 56.1719C97.8098 56.5625 97.6164 56.9043 97.3625 57.1973C97.1125 57.4863 96.8098 57.7129 96.4543 57.877C96.1027 58.0371 95.7043 58.1172 95.259 58.1172C94.8137 58.1172 94.4133 58.0371 94.0578 57.877C93.7023 57.7129 93.3977 57.4863 93.1437 57.1973C92.8937 56.9043 92.7023 56.5625 92.5695 56.1719C92.4367 55.7812 92.3703 55.3574 92.3703 54.9004ZM93.4543 54.7656V54.9004C93.4543 55.2168 93.4914 55.5156 93.5656 55.7969C93.6398 56.0742 93.7512 56.3203 93.8996 56.5352C94.052 56.75 94.2414 56.9199 94.468 57.0449C94.6945 57.166 94.9582 57.2266 95.259 57.2266C95.5559 57.2266 95.8156 57.166 96.0383 57.0449C96.2648 56.9199 96.4523 56.75 96.6008 56.5352C96.7492 56.3203 96.8605 56.0742 96.9348 55.7969C97.0129 55.5156 97.052 55.2168 97.052 54.9004V54.7656C97.052 54.4531 97.0129 54.1582 96.9348 53.8809C96.8605 53.5996 96.7473 53.3516 96.5949 53.1367C96.4465 52.918 96.259 52.7461 96.0324 52.6211C95.8098 52.4961 95.548 52.4336 95.2473 52.4336C94.9504 52.4336 94.6887 52.4961 94.4621 52.6211C94.2395 52.7461 94.052 52.918 93.8996 53.1367C93.7512 53.3516 93.6398 53.5996 93.5656 53.8809C93.4914 54.1582 93.4543 54.4531 93.4543 54.7656ZM105.256 51.6602V58H104.166V51.6602H105.256ZM107.383 51.6602V52.5391H102.08V51.6602H107.383ZM112.927 51.6602V58H111.843V51.6602H112.927ZM117.088 51.6602L114.082 55.293H112.564L112.4 54.3438H113.642L115.769 51.6602H117.088ZM115.921 58L113.589 55.1289L114.287 54.3438L117.298 58H115.921ZM125.28 56.916V53.6523C125.28 53.4023 125.229 53.1855 125.128 53.002C125.03 52.8145 124.882 52.6699 124.682 52.5684C124.483 52.4668 124.237 52.416 123.944 52.416C123.671 52.416 123.43 52.4629 123.223 52.5566C123.02 52.6504 122.86 52.7734 122.743 52.9258C122.63 53.0781 122.573 53.2422 122.573 53.418H121.489C121.489 53.1914 121.548 52.9668 121.665 52.7441C121.782 52.5215 121.95 52.3203 122.169 52.1406C122.391 51.957 122.657 51.8125 122.966 51.707C123.278 51.5977 123.626 51.543 124.009 51.543C124.47 51.543 124.876 51.6211 125.227 51.7773C125.583 51.9336 125.86 52.1699 126.059 52.4863C126.262 52.7988 126.364 53.1914 126.364 53.6641V56.6172C126.364 56.8281 126.382 57.0527 126.417 57.291C126.456 57.5293 126.512 57.7344 126.587 57.9062V58H125.456C125.401 57.875 125.358 57.709 125.327 57.502C125.296 57.291 125.28 57.0957 125.28 56.916ZM125.468 54.1562L125.479 54.918H124.384C124.075 54.918 123.8 54.9434 123.557 54.9941C123.315 55.041 123.112 55.1133 122.948 55.2109C122.784 55.3086 122.659 55.4316 122.573 55.5801C122.487 55.7246 122.444 55.8945 122.444 56.0898C122.444 56.2891 122.489 56.4707 122.579 56.6348C122.669 56.7988 122.804 56.9297 122.983 57.0273C123.167 57.1211 123.391 57.168 123.657 57.168C123.989 57.168 124.282 57.0977 124.536 56.957C124.79 56.8164 124.991 56.6445 125.139 56.4414C125.292 56.2383 125.374 56.041 125.386 55.8496L125.848 56.3711C125.821 56.5352 125.747 56.7168 125.626 56.916C125.505 57.1152 125.343 57.3066 125.139 57.4902C124.94 57.6699 124.702 57.8203 124.425 57.9414C124.151 58.0586 123.843 58.1172 123.499 58.1172C123.069 58.1172 122.692 58.0332 122.368 57.8652C122.048 57.6973 121.798 57.4727 121.618 57.1914C121.442 56.9062 121.354 56.5879 121.354 56.2363C121.354 55.8965 121.421 55.5977 121.554 55.3398C121.686 55.0781 121.878 54.8613 122.128 54.6895C122.378 54.5137 122.679 54.3809 123.03 54.291C123.382 54.2012 123.774 54.1562 124.208 54.1562H125.468ZM140.183 57.2266C140.441 57.2266 140.679 57.1738 140.898 57.0684C141.116 56.9629 141.296 56.8184 141.437 56.6348C141.577 56.4473 141.657 56.2344 141.677 55.9961H142.708C142.689 56.3711 142.562 56.7207 142.327 57.0449C142.097 57.3652 141.794 57.625 141.419 57.8242C141.044 58.0195 140.632 58.1172 140.183 58.1172C139.706 58.1172 139.29 58.0332 138.935 57.8652C138.583 57.6973 138.29 57.4668 138.056 57.1738C137.825 56.8809 137.652 56.5449 137.534 56.166C137.421 55.7832 137.364 55.3789 137.364 54.9531V54.707C137.364 54.2812 137.421 53.8789 137.534 53.5C137.652 53.1172 137.825 52.7793 138.056 52.4863C138.29 52.1934 138.583 51.9629 138.935 51.7949C139.29 51.627 139.706 51.543 140.183 51.543C140.679 51.543 141.113 51.6445 141.484 51.8477C141.855 52.0469 142.146 52.3203 142.357 52.668C142.571 53.0117 142.689 53.4023 142.708 53.8398H141.677C141.657 53.5781 141.583 53.3418 141.454 53.1309C141.329 52.9199 141.157 52.752 140.939 52.627C140.724 52.498 140.472 52.4336 140.183 52.4336C139.851 52.4336 139.571 52.5 139.345 52.6328C139.122 52.7617 138.945 52.9375 138.812 53.1602C138.683 53.3789 138.589 53.623 138.53 53.8926C138.476 54.1582 138.448 54.4297 138.448 54.707V54.9531C138.448 55.2305 138.476 55.5039 138.53 55.7734C138.585 56.043 138.677 56.2871 138.806 56.5059C138.939 56.7246 139.116 56.9004 139.339 57.0332C139.566 57.1621 139.847 57.2266 140.183 57.2266ZM150.965 56.916V53.6523C150.965 53.4023 150.914 53.1855 150.813 53.002C150.715 52.8145 150.567 52.6699 150.368 52.5684C150.168 52.4668 149.922 52.416 149.629 52.416C149.356 52.416 149.116 52.4629 148.909 52.5566C148.705 52.6504 148.545 52.7734 148.428 52.9258C148.315 53.0781 148.258 53.2422 148.258 53.418H147.174C147.174 53.1914 147.233 52.9668 147.35 52.7441C147.467 52.5215 147.635 52.3203 147.854 52.1406C148.077 51.957 148.342 51.8125 148.651 51.707C148.963 51.5977 149.311 51.543 149.694 51.543C150.155 51.543 150.561 51.6211 150.912 51.7773C151.268 51.9336 151.545 52.1699 151.745 52.4863C151.948 52.7988 152.049 53.1914 152.049 53.6641V56.6172C152.049 56.8281 152.067 57.0527 152.102 57.291C152.141 57.5293 152.198 57.7344 152.272 57.9062V58H151.141C151.086 57.875 151.043 57.709 151.012 57.502C150.981 57.291 150.965 57.0957 150.965 56.916ZM151.153 54.1562L151.164 54.918H150.069C149.76 54.918 149.485 54.9434 149.243 54.9941C149 55.041 148.797 55.1133 148.633 55.2109C148.469 55.3086 148.344 55.4316 148.258 55.5801C148.172 55.7246 148.129 55.8945 148.129 56.0898C148.129 56.2891 148.174 56.4707 148.264 56.6348C148.354 56.7988 148.489 56.9297 148.668 57.0273C148.852 57.1211 149.077 57.168 149.342 57.168C149.674 57.168 149.967 57.0977 150.221 56.957C150.475 56.8164 150.676 56.6445 150.825 56.4414C150.977 56.2383 151.059 56.041 151.071 55.8496L151.534 56.3711C151.506 56.5352 151.432 56.7168 151.311 56.916C151.19 57.1152 151.028 57.3066 150.825 57.4902C150.625 57.6699 150.387 57.8203 150.11 57.9414C149.836 58.0586 149.528 58.1172 149.184 58.1172C148.754 58.1172 148.377 58.0332 148.053 57.8652C147.733 57.6973 147.483 57.4727 147.303 57.1914C147.127 56.9062 147.039 56.5879 147.039 56.2363C147.039 55.8965 147.106 55.5977 147.239 55.3398C147.371 55.0781 147.563 54.8613 147.813 54.6895C148.063 54.5137 148.364 54.3809 148.715 54.291C149.067 54.2012 149.459 54.1562 149.893 54.1562H151.153ZM158.226 56.2832L161.15 51.6602H162.24V58H161.15V53.377L158.226 58H157.148V51.6602H158.226V56.2832ZM160.558 49.3633H161.437C161.437 49.668 161.367 49.9395 161.226 50.1777C161.086 50.4121 160.884 50.5957 160.623 50.7285C160.361 50.8613 160.05 50.9277 159.691 50.9277C159.148 50.9277 158.718 50.7832 158.402 50.4941C158.089 50.2012 157.933 49.8242 157.933 49.3633H158.812C158.812 49.5938 158.879 49.7969 159.011 49.9727C159.144 50.1484 159.371 50.2363 159.691 50.2363C160.004 50.2363 160.226 50.1484 160.359 49.9727C160.492 49.7969 160.558 49.5938 160.558 49.3633ZM169.864 51.6602V58H168.774V51.6602H169.864ZM171.991 51.6602V52.5391H166.688V51.6602H171.991ZM175.824 54.9004V54.7656C175.824 54.3086 175.891 53.8848 176.023 53.4941C176.156 53.0996 176.348 52.7578 176.598 52.4688C176.848 52.1758 177.15 51.9492 177.506 51.7891C177.861 51.625 178.26 51.543 178.701 51.543C179.146 51.543 179.547 51.625 179.902 51.7891C180.262 51.9492 180.566 52.1758 180.816 52.4688C181.07 52.7578 181.264 53.0996 181.396 53.4941C181.529 53.8848 181.596 54.3086 181.596 54.7656V54.9004C181.596 55.3574 181.529 55.7812 181.396 56.1719C181.264 56.5625 181.07 56.9043 180.816 57.1973C180.566 57.4863 180.264 57.7129 179.908 57.877C179.557 58.0371 179.158 58.1172 178.713 58.1172C178.268 58.1172 177.867 58.0371 177.512 57.877C177.156 57.7129 176.852 57.4863 176.598 57.1973C176.348 56.9043 176.156 56.5625 176.023 56.1719C175.891 55.7812 175.824 55.3574 175.824 54.9004ZM176.908 54.7656V54.9004C176.908 55.2168 176.945 55.5156 177.02 55.7969C177.094 56.0742 177.205 56.3203 177.354 56.5352C177.506 56.75 177.695 56.9199 177.922 57.0449C178.148 57.166 178.412 57.2266 178.713 57.2266C179.01 57.2266 179.27 57.166 179.492 57.0449C179.719 56.9199 179.906 56.75 180.055 56.5352C180.203 56.3203 180.314 56.0742 180.389 55.7969C180.467 55.5156 180.506 55.2168 180.506 54.9004V54.7656C180.506 54.4531 180.467 54.1582 180.389 53.8809C180.314 53.5996 180.201 53.3516 180.049 53.1367C179.9 52.918 179.713 52.7461 179.486 52.6211C179.264 52.4961 179.002 52.4336 178.701 52.4336C178.404 52.4336 178.143 52.4961 177.916 52.6211C177.693 52.7461 177.506 52.918 177.354 53.1367C177.205 53.3516 177.094 53.5996 177.02 53.8809C176.945 54.1582 176.908 54.4531 176.908 54.7656ZM189.232 55.2109H187.152L187.14 54.3438H188.839C189.175 54.3438 189.454 54.3105 189.677 54.2441C189.904 54.1777 190.073 54.0781 190.187 53.9453C190.3 53.8125 190.357 53.6484 190.357 53.4531C190.357 53.3008 190.323 53.168 190.257 53.0547C190.195 52.9375 190.099 52.8418 189.97 52.7676C189.841 52.6895 189.681 52.6328 189.489 52.5977C189.302 52.5586 189.081 52.5391 188.827 52.5391H187.439V58H186.355V51.6602H188.827C189.23 51.6602 189.591 51.6953 189.911 51.7656C190.236 51.8359 190.511 51.9434 190.738 52.0879C190.968 52.2285 191.144 52.4082 191.265 52.627C191.386 52.8457 191.446 53.1035 191.446 53.4004C191.446 53.5918 191.407 53.7734 191.329 53.9453C191.251 54.1172 191.136 54.2695 190.984 54.4023C190.831 54.5352 190.644 54.6445 190.421 54.7305C190.198 54.8125 189.943 54.8652 189.654 54.8887L189.232 55.2109ZM189.232 58H186.759L187.298 57.1211H189.232C189.532 57.1211 189.782 57.084 189.982 57.0098C190.181 56.9316 190.329 56.8223 190.427 56.6816C190.529 56.5371 190.579 56.3652 190.579 56.166C190.579 55.9668 190.529 55.7969 190.427 55.6562C190.329 55.5117 190.181 55.4023 189.982 55.3281C189.782 55.25 189.532 55.2109 189.232 55.2109H187.585L187.597 54.3438H189.654L190.046 54.6719C190.394 54.6992 190.689 54.7852 190.931 54.9297C191.173 55.0742 191.357 55.2578 191.482 55.4805C191.607 55.6992 191.669 55.9375 191.669 56.1953C191.669 56.4922 191.613 56.7539 191.499 56.9805C191.39 57.207 191.23 57.3965 191.019 57.5488C190.808 57.6973 190.552 57.8105 190.251 57.8887C189.95 57.9629 189.611 58 189.232 58Z" fill="black"/>
</svg>
